<svg xmlns="http://www.w3.org/2000/svg" width="480" height="160" viewBox="0 0 480 160">
  <metadata><?xpacket begin="﻿" id="W5M0MpCehiHzreSzNTczkc9d"?>
<x:xmpmeta xmlns:x="adobe:ns:meta/" x:xmptk="Adobe XMP Core 5.6-c142 79.160924, 2017/07/13-01:06:39        ">
   <rdf:RDF xmlns:rdf="http://www.w3.org/1999/02/22-rdf-syntax-ns#">
      <rdf:Description rdf:about=""/>
   </rdf:RDF>
</x:xmpmeta>
                                                                                                    
                                                                                                    
                                                                                                    
                                                                                                    
                                                                                                    
                                                                                                    
                                                                                                    
                                                                                                    
                                                                                                    
                                                                                                    
                                                                                                    
                                                                                                    
                                                                                                    
                                                                                                    
                                                                                                    
                                                                                                    
                                                                                                    
                                                                                                    
                                                                                                    
                                                                                                    
                           
<?xpacket end="w"?></metadata>
<defs>
    <style>
      .cls-1 {
        fill: #ba1e1e;
      }

      .cls-1, .cls-2, .cls-3 {
        fill-rule: evenodd;
      }

      .cls-2 {
        fill: #797979;
      }

      .cls-3 {
        fill: #25303e;
      }
    </style>
  </defs>
  <path class="cls-1" d="M20.592,35.753l0.174-.092-0.1.177Zm94.031,2.923,8.432-34.17L97.46,28.611a56.359,56.359,0,0,0-55.5,96.225L33.63,158.5l25.438-23.859-0.1-.071A56.348,56.348,0,0,0,114.623,38.675ZM78.018,131.162A49.641,49.641,0,1,1,127.7,81.521,49.715,49.715,0,0,1,78.018,131.162ZM97.653,51.849l-5.041,8.644q-4.934,8.463-9.861,16.929a0.541,0.541,0,0,1-.545.309c-2.3-.01-4.6-0.013-6.9,0a0.615,0.615,0,0,1-.609-0.361q-4.431-7.485-8.874-14.964-2.964-5-5.925-10c-0.029-.049-0.066-0.093-0.145-0.2-0.863.629-1.736,1.23-2.571,1.881A33.987,33.987,0,0,0,44.306,76.355a35.189,35.189,0,0,0-.213,7.442,34.174,34.174,0,0,0,3.889,13.524,33.1,33.1,0,0,0,4.473,6.486,35.1,35.1,0,0,0,9.92,7.814,0.488,0.488,0,0,1,.239.339c0.014,2.129.01,4.257,0.01,6.466a40.464,40.464,0,0,1-12.239-8,38.885,38.885,0,0,1-11.842-22.6A40.164,40.164,0,0,1,62.758,43.876L78.79,71.121,94.922,43.789a39.822,39.822,0,0,1,25.017,38.76,39.643,39.643,0,0,1-24.972,35.985c0-2.106,0-4.218.012-6.331a0.544,0.544,0,0,1,.276-0.372,34.729,34.729,0,0,0,7.474-5.119,33.59,33.59,0,0,0,8.354-11.487,34.427,34.427,0,0,0,2.886-16.518,33.982,33.982,0,0,0-3.711-13.35,33.306,33.306,0,0,0-6.071-8.344A34.814,34.814,0,0,0,97.653,51.849ZM92.806,79.5v39.4H86.853Q86.781,102,86.709,85.106H70.473q0.143,16.884.286,33.774H64.825V79.5H92.806Z"/>
  <path id="univerzitet_u_nišu" data-name="univerzitet u nišu" class="cls-2" d="M163.4,43.739V35.5h-1.6v8.242c0,3.661,2.221,5.821,5.9,5.821,3.66,0,5.861-2.16,5.861-5.821V35.5h-1.6v8.242c0,2.761-1.6,4.361-4.261,4.361A3.981,3.981,0,0,1,163.4,43.739ZM177.48,35.5v14h1.6V38.138l8.4,11.362h1.641v-14h-1.581V46.879l-8.4-11.382H177.48Zm15.9,0v14h1.6v-14h-1.6Zm3.84,0,5.681,14h1.66l5.721-14H208.6l-4.841,12.2L198.94,35.5h-1.72Zm15.3,0v14h9.762V48.02H214.12V43.139h7.062v-1.46H214.12v-4.7h7.9V35.5h-9.5Zm24,14-3.3-4.781a4.377,4.377,0,0,0,3.161-4.521c0-2.981-2.02-4.7-5.521-4.7H225.54v14h1.6V45.059h3.721c0.32,0,.62-0.02.9-0.04L234.7,49.5h1.82Zm-9.382-5.921v-6.6h3.721c2.54,0,3.981,1.12,3.981,3.261,0,2.2-1.441,3.341-3.981,3.341H227.14ZM239,35.5v1.48h9.022L238.739,48.26V49.5H250.2l0.02-1.48H240.84l9.282-11.282V35.5H239Zm14.2,0v14h1.6v-14h-1.6Zm3.94,0v1.48H261.7V49.5h1.6V36.977h4.581V35.5H257.139Zm13.06,0v14h9.762V48.02H271.8V43.139h7.062v-1.46H271.8v-4.7h7.9V35.5h-9.5Zm11.119,0v1.48h4.561V49.5h1.6V36.977h4.581V35.5H281.318Zm19.821,8.242V35.5h-1.6v8.242c0,3.661,2.221,5.821,5.9,5.821,3.66,0,5.861-2.16,5.861-5.821V35.5h-1.6v8.242c0,2.761-1.6,4.361-4.261,4.361A3.981,3.981,0,0,1,301.139,43.739ZM320.7,35.5v14h1.6V38.138L330.7,49.5h1.641v-14H330.76V46.879l-8.4-11.382H320.7Zm15.9,0v14h1.6v-14h-1.6Zm6.92-4.381,2.081,2.7h1.64l2.08-2.7h-1.46L346.419,33l-1.441-1.88h-1.46Zm6.842,7.042,0.68-1.42a8.286,8.286,0,0,0-4.441-1.3c-2.9,0-4.841,1.4-4.841,3.6,0,5.021,7.881,3.041,7.861,6.781,0,1.36-1.26,2.18-3.28,2.18a7.034,7.034,0,0,1-4.661-1.96l-0.72,1.38a7.99,7.99,0,0,0,5.361,2.14c3,0,5.061-1.5,5.061-3.821,0.02-5.081-7.862-3.181-7.862-6.821,0-1.2,1.18-1.92,2.981-1.92A7.379,7.379,0,0,1,350.36,38.158Zm5.578,5.581V35.5h-1.6v8.242c0,3.661,2.22,5.821,5.9,5.821,3.661,0,5.861-2.16,5.861-5.821V35.5h-1.6v8.242c0,2.761-1.6,4.361-4.261,4.361A3.981,3.981,0,0,1,355.938,43.739Z"/>
  <path id="Prirodno-matematički" class="cls-3" d="M168.8,79.987a7.746,7.746,0,0,0,5.148-1.568,5.307,5.307,0,0,0,1.86-4.285,6.036,6.036,0,0,0-.851-3.193,5.612,5.612,0,0,0-2.431-2.165,8.346,8.346,0,0,0-3.663-.762H161.65V86.5h3.809V79.987H168.8ZM165.459,71.1h3.491a2.987,2.987,0,0,1,2.209.863,3.05,3.05,0,0,1,.8,2.2,2.588,2.588,0,0,1-.793,2.031,3.349,3.349,0,0,1-2.305.711h-3.4V71.1Zm23.27,15.4h4.088V86.322l-4-7.554a5.583,5.583,0,0,0,2.482-2.012,5.685,5.685,0,0,0,.819-3.155,5.038,5.038,0,0,0-1.777-4.126,7.765,7.765,0,0,0-5.053-1.46h-6.868V86.5h3.808V79.733h3.035Zm-6.5-15.4h3.06a3.087,3.087,0,0,1,2.279.749,2.794,2.794,0,0,1,.743,2.057,2.609,2.609,0,0,1-.788,2.012,3.143,3.143,0,0,1-2.221.73h-3.073V71.1Zm16.834-3.085h-3.808V86.5h3.808V68.016ZM212.9,86.5h4.088V86.322l-4-7.554a5.583,5.583,0,0,0,2.482-2.012,5.685,5.685,0,0,0,.819-3.155,5.038,5.038,0,0,0-1.777-4.126,7.765,7.765,0,0,0-5.053-1.46h-6.868V86.5H206.4V79.733h3.035Zm-6.5-15.4h3.06a3.087,3.087,0,0,1,2.279.749,2.793,2.793,0,0,1,.742,2.057,2.608,2.608,0,0,1-.787,2.012,3.145,3.145,0,0,1-2.221.73H206.4V71.1Zm27.968,5.751a11.068,11.068,0,0,0-.984-4.793,7.324,7.324,0,0,0-2.78-3.186,8.147,8.147,0,0,0-8.214,0,7.324,7.324,0,0,0-2.78,3.186,11.1,11.1,0,0,0-.984,4.805v0.914a10.834,10.834,0,0,0,1,4.716,7.335,7.335,0,0,0,2.793,3.155,8.159,8.159,0,0,0,8.22-.013,7.261,7.261,0,0,0,2.761-3.174,11.161,11.161,0,0,0,.965-4.786V76.852Zm-3.859.889a7.839,7.839,0,0,1-1.041,4.386,3.646,3.646,0,0,1-5.942-.057,7.876,7.876,0,0,1-1.041-4.392v-0.9A7.694,7.694,0,0,1,223.54,72.4a3.678,3.678,0,0,1,5.929.019,7.779,7.779,0,0,1,1.041,4.418v0.9Zm12.352,8.76a8.7,8.7,0,0,0,4.355-1.117,7.6,7.6,0,0,0,2.99-3.11,9.668,9.668,0,0,0,1.06-4.583V76.839a9.638,9.638,0,0,0-1.079-4.6,7.664,7.664,0,0,0-3-3.123,8.638,8.638,0,0,0-4.361-1.1h-5.687V86.5h5.725Zm-0.038-15.4a4.123,4.123,0,0,1,3.415,1.454,6.7,6.7,0,0,1,1.168,4.272V77.8a6.6,6.6,0,0,1-1.206,4.177,4.135,4.135,0,0,1-3.415,1.46h-1.841V71.1h1.879Zm26.241-3.085h-3.8V80.2l-7.427-12.187h-3.809V86.5h3.809V74.338L265.257,86.5h3.808V68.016Zm18.51,8.836a11.068,11.068,0,0,0-.984-4.793,7.324,7.324,0,0,0-2.78-3.186,8.147,8.147,0,0,0-8.214,0,7.324,7.324,0,0,0-2.78,3.186,11.1,11.1,0,0,0-.984,4.805v0.914a10.834,10.834,0,0,0,1,4.716,7.335,7.335,0,0,0,2.793,3.155,8.159,8.159,0,0,0,8.22-.013,7.261,7.261,0,0,0,2.761-3.174,11.161,11.161,0,0,0,.965-4.786V76.852Zm-3.859.889a7.839,7.839,0,0,1-1.041,4.386,3.646,3.646,0,0,1-5.942-.057,7.876,7.876,0,0,1-1.041-4.392v-0.9a7.694,7.694,0,0,1,1.054-4.374,3.678,3.678,0,0,1,5.929.019,7.779,7.779,0,0,1,1.041,4.418v0.9Zm13.52-.635h-7.147v2.958h7.147V77.106Zm3.187-9.09V86.5h3.808V81.447l-0.38-8.709L308.827,86.5h2.615l4.99-13.774-0.381,8.722V86.5h3.821V68.016h-5l-4.723,13.406L305.4,68.016h-4.976ZM334.916,86.5h4.05l-6.919-18.484h-3.529L321.637,86.5h4.05l1.269-3.809h6.678Zm-4.634-13.812,2.323,6.919h-4.621Zm22.8-4.672H338.026V71.1h5.586V86.5h3.809V71.1h5.662V68.016Zm13.292,7.49h-7.312V71.1h8.556V68.016H355.254V86.5h12.391V83.44h-8.582V78.489h7.312V75.506Zm3.5-7.49V86.5h3.809V81.447l-0.381-8.709L378.283,86.5H380.9l4.99-13.774-0.381,8.722V86.5h3.821V68.016h-5L379.6,81.422l-4.749-13.406h-4.976ZM404.372,86.5h4.05L401.5,68.016h-3.529L391.093,86.5h4.05l1.269-3.809h6.678Zm-4.634-13.812,2.324,6.919H397.44Zm22.8-4.672H407.482V71.1h5.586V86.5h3.809V71.1h5.662V68.016Zm6.221,0h-3.809V86.5h3.809V68.016Zm14.231,12.327a3.646,3.646,0,0,1-1,2.495,3.761,3.761,0,0,1-2.635.806A3.175,3.175,0,0,1,436.5,82.26a8.177,8.177,0,0,1-.908-4.38v-1.4a7.646,7.646,0,0,1,.971-4.234,3.236,3.236,0,0,1,2.85-1.365,3.69,3.69,0,0,1,2.609.806,3.867,3.867,0,0,1,1,2.6h3.808a7.026,7.026,0,0,0-2.26-4.811,8.39,8.39,0,0,0-9.21-.628,7.037,7.037,0,0,0-2.685,3.117,11.07,11.07,0,0,0-.94,4.7v1.13a9.814,9.814,0,0,0,2.038,6.57,6.954,6.954,0,0,0,5.592,2.393A7.736,7.736,0,0,0,444.6,85.04a6.54,6.54,0,0,0,2.2-4.7h-3.809ZM437.507,62.95h-3.136v0.114l3.834,3.593h2.323l3.834-3.567V62.95h-3.135l-1.854,1.815ZM459.838,86.5h4.532l-6.754-10.27,6.564-8.214H459.5l-4.71,6.081-1.676,2.3V68.016H449.3V86.5h3.808V81.219l1.981-2.133Zm10.016-18.484h-3.808V86.5h3.808V68.016Z"/>
  <path id="fakultet" class="cls-3" d="M172.771,104.874h-7.312V100.1h8.227V97.016H161.65V115.5h3.809v-7.554h7.312v-3.072Zm12.4,10.626h4.05l-6.919-18.484h-3.53L171.9,115.5h4.049l1.27-3.809h6.678Zm-4.634-13.812,2.323,6.918h-4.621ZM201.488,115.5h4.533l-6.754-10.271,6.563-8.213h-4.684l-4.71,6.081-1.676,2.3V97.016h-3.809V115.5h3.809v-5.281l1.98-2.133Zm16.136-18.484v12.3q-0.051,3.378-3.263,3.377a3.337,3.337,0,0,1-2.405-.831,3.521,3.521,0,0,1-.87-2.647v-12.2h-3.809V109.33a6.128,6.128,0,0,0,1.943,4.71,7.4,7.4,0,0,0,5.141,1.714,7.314,7.314,0,0,0,5.186-1.765,6.23,6.23,0,0,0,1.9-4.8V97.016h-3.821Zm10.753,0h-3.809V115.5h11.9v-3.06h-8.087V97.016Zm21.582,0H234.9V100.1h5.586v15.4H244.3V100.1h5.662V97.016Zm13.292,7.49h-7.313V100.1H264.5V97.016H252.13V115.5h12.391v-3.06h-8.583v-4.951h7.313v-2.983Zm17.672-7.49H265.866V100.1h5.586v15.4h3.809V100.1h5.662V97.016Z"/>
  <path class="cls-3" d="M76.359,157.5A76.731,76.731,0,0,1,1.794,99.2l6.269-1.568A70.4,70.4,0,1,0,54.612,13.405L52.618,7.248A76.98,76.98,0,1,1,76.359,157.5Z"/>
</svg>
